<?xml version="1.0" encoding="UTF-8" standalone="no"?>
<svg xmlns="http://www.w3.org/2000/svg" width="210mm" height="297mm" viewBox="0 0 210 297">
  <path style="fill:none;stroke:#000000;stroke-width:0.75px;" d="M 155.0,148.5 L 154.69135802469137,149.034583582583 L 155.0,149.569167165166 L 154.3827160493827,149.56916716516596 L 154.07407407407408,150.10375074774896 L 154.3827160493827,150.63833433033196 L 155.0,150.63833433033196 L 154.69135802469137,151.17291791291493 L 155.0,151.70750149549792 L 154.3827160493827,151.70750149549792 L 154.07407407407408,152.24208507808092 L 153.76543209876544,151.70750149549792 L 153.14814814814815,151.70750149549792 L 152.83950617283952,152.24208507808092 L 153.14814814814815,152.77666866066392 L 152.53086419753086,152.7766686606639 L 152.22222222222223,153.31125224324688 L 152.53086419753086,153.84583582582988 L 153.14814814814815,153.84583582582988 L 152.83950617283952,154.38041940841285 L 153.14814814814815,154.91500299099584 L 153.76543209876544,154.91500299099584 L 154.07407407407408,154.38041940841285 L 154.3827160493827,154.91500299099584 L 155.0,154.91500299099584 L 154.69135802469137,155.44958657357884 L 155.0,155.98417015616184 L 154.3827160493827,155.9841701561618 L 154.07407407407408,156.5187537387448 L 154.3827160493827,157.0533373213278 L 155.0,157.0533373213278 L 154.69135802469137,157.58792090391077 L 155.0,158.12250448649377 L 154.3827160493827,158.12250448649377 L 154.07407407407408,158.65708806907676 L 153.76543209876544,158.12250448649377 L 153.14814814814815,158.12250448649377 L 152.83950617283952,158.65708806907676 L 153.14814814814815,159.19167165165976 L 152.53086419753086,159.19167165165973 L 152.22222222222223,159.72625523424273 L 151.91358024691357,159.19167165165973 L 151.29629629629628,159.19167165165973 L 151.60493827160494,158.65708806907676 L 151.29629629629628,158.12250448649377 L 150.67901234567898,158.12250448649377 L 150.37037037037035,158.65708806907676 L 150.06172839506172,158.12250448649377 L 149.44444444444443,158.12250448649377 L 149.1358024691358,158.65708806907676 L 149.44444444444443,159.19167165165976 L 148.82716049382714,159.19167165165973 L 148.5185185185185,159.72625523424273 L 148.82716049382714,160.26083881682572 L 149.44444444444443,160.26083881682572 L 149.1358024691358,160.7954223994087 L 149.44444444444443,161.3300059819917 L 148.82716049382714,161.3300059819917 L 148.5185185185185,161.8645895645747 L 148.20987654320987,161.3300059819917 L 147.59259259259258,161.3300059819917 L 147.28395061728395,161.8645895645747 L 147.59259259259258,162.39917314715768 L 146.9753086419753,162.39917314715765 L 146.66666666666666,162.93375672974065 L 146.9753086419753,163.46834031232365 L 147.59259259259258,163.46834031232365 L 147.28395061728395,164.00292389490662 L 147.59259259259258,164.5375074774896 L 148.20987654320987,164.5375074774896 L 148.5185185185185,164.00292389490662 L 148.82716049382714,164.5375074774896 L 149.44444444444443,164.5375074774896 L 149.1358024691358,165.0720910600726 L 149.44444444444443,165.6066746426556 L 148.82716049382714,165.60667464265558 L 148.5185185185185,166.14125822523857 L 148.82716049382714,166.67584180782157 L 149.44444444444443,166.67584180782157 L 149.1358024691358,167.21042539040454 L 149.44444444444443,167.74500897298753 L 150.06172839506172,167.74500897298753 L 150.37037037037035,167.21042539040454 L 150.67901234567898,167.74500897298753 L 151.29629629629628,167.74500897298753 L 151.6049382716049,167.21042539040454 L 151.29629629629628,166.67584180782154 L 151.91358024691357,166.67584180782157 L 152.2222222222222,166.14125822523857 L 152.53086419753083,166.67584180782157 L 153.14814814814812,166.67584180782157 L 152.8395061728395,167.21042539040454 L 153.14814814814812,167.74500897298753 L 153.76543209876542,167.74500897298753 L 154.07407407407405,167.21042539040454 L 154.38271604938268,167.74500897298753 L 154.99999999999997,167.74500897298753 L 154.69135802469134,168.27959255557053 L 154.99999999999997,168.81417613815353 L 154.38271604938268,168.8141761381535 L 154.07407407407405,169.3487597207365 L 154.38271604938268,169.8833433033195 L 154.99999999999997,169.8833433033195 L 154.69135802469134,170.41792688590246 L 154.99999999999997,170.95251046848546 L 154.38271604938268,170.95251046848546 L 154.07407407407405,171.48709405106845 L 153.76543209876542,170.95251046848546 L 153.14814814814812,170.95251046848546 L 152.8395061728395,171.48709405106845 L 153.14814814814812,172.02167763365145 L 152.53086419753083,172.02167763365142 L 152.2222222222222,172.55626121623442 L 152.53086419753083,173.09084479881741 L 153.14814814814812,173.09084479881741 L 152.8395061728395,173.62542838140038 L 153.14814814814812,174.16001196398338 L 153.76543209876542,174.16001196398338 L 154.07407407407405,173.62542838140038 L 154.38271604938268,174.16001196398338 L 154.99999999999997,174.16001196398338 L 154.69135802469134,174.69459554656638 L 154.99999999999997,175.22917912914937 L 154.38271604938268,175.22917912914934 L 154.07407407407405,175.76376271173234 L 154.38271604938268,176.29834629431534 L 154.99999999999997,176.29834629431534 L 154.69135802469134,176.8329298768983 L 154.99999999999997,177.3675134594813 L 154.38271604938268,177.3675134594813 L 154.07407407407405,177.9020970420643 L 153.76543209876542,177.3675134594813 L 153.14814814814812,177.3675134594813 L 152.8395061728395,177.9020970420643 L 153.14814814814812,178.4366806246473 L 152.53086419753083,178.43668062464727 L 152.2222222222222,178.97126420723026 L 151.91358024691357,178.43668062464727 L 151.29629629629628,178.43668062464727 L 151.6049382716049,177.9020970420643 L 151.29629629629628,177.3675134594813 L 150.67901234567898,177.3675134594813 L 150.37037037037035,177.9020970420643 L 150.06172839506172,177.3675134594813 L 149.44444444444443,177.3675134594813 L 149.1358024691358,177.9020970420643 L 149.44444444444443,178.4366806246473 L 148.82716049382714,178.43668062464727 L 148.5185185185185,178.97126420723026 L 148.82716049382714,179.50584778981326 L 149.44444444444443,179.50584778981326 L 149.1358024691358,180.04043137239623 L 149.44444444444443,180.57501495497922 L 148.82716049382714,180.57501495497922 L 148.51851851851848,181.1095985375622 L 148.20987654320987,180.5750149549792 L 147.59259259259258,180.5750149549792 L 147.28395061728395,181.1095985375622 L 147.59259259259258,181.6441821201452 L 146.9753086419753,181.64418212014516 L 146.66666666666666,182.17876570272816 L 146.35802469135803,181.64418212014516 L 145.74074074074073,181.64418212014516 L 146.04938271604937,181.1095985375622 L 145.74074074074073,180.5750149549792 L 145.12345679012344,180.5750149549792 L 144.8148148148148,181.1095985375622 L 144.50617283950618,180.5750149549792 L 143.88888888888889,180.5750149549792 L 144.19753086419752,180.0404313723962 L 143.88888888888889,179.5058477898132 L 144.50617283950618,179.50584778981323 L 144.8148148148148,178.97126420723023 L 144.50617283950618,178.43668062464724 L 143.88888888888889,178.43668062464724 L 144.19753086419752,177.90209704206427 L 143.88888888888889,177.36751345948127 L 143.2716049382716,177.36751345948127 L 142.96296296296296,177.90209704206427 L 142.65432098765433,177.36751345948127 L 142.03703703703704,177.36751345948127 L 141.7283950617284,177.90209704206427 L 142.03703703703704,178.43668062464727 L 141.41975308641975,178.43668062464724 L 141.11111111111111,178.97126420723023 L 140.80246913580248,178.43668062464724 L 140.1851851851852,178.43668062464724 L 140.49382716049382,177.90209704206427 L 140.1851851851852,177.36751345948127 L 139.5679012345679,177.36751345948127 L 139.25925925925927,177.90209704206427 L 138.95061728395063,177.36751345948127 L 138.33333333333334,177.36751345948127 L 138.0246913580247,177.90209704206427 L 138.33333333333334,178.43668062464727 L 137.71604938271605,178.43668062464724 L 137.40740740740742,178.97126420723023 L 137.71604938271605,179.50584778981323 L 138.33333333333334,179.50584778981323 L 138.0246913580247,180.0404313723962 L 138.33333333333334,180.5750149549792 L 137.71604938271605,180.5750149549792 L 137.40740740740742,181.1095985375622 L 137.0987654320988,180.5750149549792 L 136.4814814814815,180.5750149549792 L 136.17283950617286,181.1095985375622 L 136.4814814814815,181.6441821201452 L 135.8641975308642,181.64418212014516 L 135.55555555555557,182.17876570272816 L 135.8641975308642,182.71334928531115 L 136.4814814814815,182.71334928531115 L 136.17283950617286,183.24793286789412 L 136.4814814814815,183.78251645047712 L 137.0987654320988,183.78251645047712 L 137.40740740740742,183.24793286789412 L 137.71604938271605,183.78251645047712 L 138.33333333333334,183.78251645047712 L 138.0246913580247,184.31710003306011 L 138.33333333333334,184.8516836156431 L 137.71604938271605,184.85168361564308 L 137.40740740740742,185.38626719822608 L 137.71604938271605,185.92085078080908 L 138.33333333333334,185.92085078080908 L 138.0246913580247,186.45543436339204 L 138.33333333333334,186.99001794597504 L 137.71604938271605,186.99001794597504 L 137.40740740740742,187.52460152855804 L 137.0987654320988,186.99001794597504 L 136.4814814814815,186.99001794597504 L 136.17283950617286,187.52460152855804 L 136.4814814814815,188.05918511114103 L 135.8641975308642,188.059185111141 L 135.55555555555557,188.593768693724 L 135.2469135802469,188.059185111141 L 134.62962962962962,188.059185111141 L 134.93827160493828,187.52460152855804 L 134.62962962962962,186.99001794597504 L 134.01234567901233,186.99001794597504 L 133.7037037037037,187.52460152855804 L 133.39506172839506,186.99001794597504 L 132.77777777777777,186.99001794597504 L 132.46913580246914,187.52460152855804 L 132.77777777777777,188.05918511114103 L 132.16049382716048,188.059185111141 L 131.85185185185185,188.593768693724 L 132.16049382716048,189.128352276307 L 132.77777777777777,189.128352276307 L 132.46913580246914,189.66293585888997 L 132.77777777777777,190.19751944147296 L 132.16049382716048,190.19751944147296 L 131.85185185185185,190.73210302405596 L 131.54320987654322,190.19751944147296 L 130.92592592592592,190.19751944147296 L 130.6172839506173,190.73210302405596 L 130.92592592592592,191.26668660663896 L 130.30864197530863,191.26668660663893 L 130.0,191.80127018922192 L 129.3688765127857,191.81309381272766 L 129.11322329465648,192.31205951537726 L 128.73775302557144,191.82491743623342 L 128.10662953835714,191.83674105973915 L 127.69491555732078,192.20920644376685 L 127.87978614781954,192.6146442934178 L 127.28320157628441,192.58167182779454 L 126.87148759524806,192.95413721182223 L 126.67014560717719,192.58703821900656 L 126.27577262555398,192.66105540087437 L 126.416575272582,192.21691728255476 L 126.21325907671427,191.8722119302564 L 125.58213558949997,191.88403555376215 L 125.38474818837443,192.5444067155388 L 124.95101210228569,191.8958591772679 L 124.31988861507139,191.90768280077364 L 123.90532392351624,192.28444704926136 L 124.15738384351698,192.8142969523363 L 123.49075923196109,192.66121129774905 L 123.07619454040594,193.03797554623677 L 123.33651940694386,193.48176844060006 L 123.90417891597505,193.43804037501548 L 123.6039936896112,193.93444163863313 L 123.9042362422253,194.40578508351038 L 123.2136576500637,194.32661281957354 L 122.87390073373628,194.88954957319535 L 122.52307905790208,194.2474405556367 L 121.83250046574048,194.16826829169986 L 121.41793577418532,194.54503254018758 L 121.42365802370327,195.05297753070653 L 121.00337108263018,194.92179678867527 L 120.58880639107502,195.29856103716298 L 120.38239520491658,194.91871312031134 L 119.8934083873127,194.96928328883175 L 120.17598401875814,194.5388652034597 L 119.9695728325997,194.15901728660805 L 119.52568473287651,194.22740149906141 L 119.33179629998469,194.53672480098174 L 119.08179663315335,194.29578571151478 L 118.63790853343016,194.36416992396815 L 118.84975152856848,193.9674324780162 L 118.6968364977691,193.6002417623905 L 119.06159452370677,193.57069503206426 L 119.27343751884509,193.17395758611232 L 119.06221742261098,192.78733686151665 L 118.6659304277992,192.88396711590542 L 118.85099732637687,192.400716136921 L 118.63977723014277,192.01409541232533 L 118.00865374292847,192.02591903583107 L 117.65683344738694,192.47089719754703 L 117.37753025571419,192.03774265933683 L 116.7464067684999,192.04956628284256 L 116.34451200100656,192.66603736232466 L 116.57212736826979,193.39199441049792 L 115.94261723351323,193.28250844180673 L 115.5407224660199,193.89897952128882 L 115.31149374629895,193.2943320653125 L 114.75276065553359,193.16264753431287 L 115.08226502657799,192.68968460933615 L 114.85303630685704,192.08503715335982 L 114.201304579705,192.1035891815157 L 113.94658792981993,192.55437394798534 L 113.60620941238643,192.10457490246654 L 112.95966584521416,192.12050802387705 L 112.75310687655545,192.54077923551685 L 113.09627055387864,192.950908686111 L 112.52933262641665,192.99728122786382 L 112.31901841902709,193.43911003179235 L 112.62980008032102,193.71411400702974 L 113.00622672031689,193.62400463545634 L 112.90020053058518,193.9654397874354 L 113.20268137567956,194.22040800176555 L 112.69457791473305,194.39950934774623 L 112.69378969293953,194.94674011245314 L 112.18647445378653,194.57861069372694 L 111.67837099284002,194.75771203970763 L 111.46482185077765,195.19724604234605 L 111.69079603158727,195.51638683268877 L 111.2512727087153,195.6367800449845 L 111.03772356665294,196.07631404762293 L 111.45456840499972,196.38775827003747 L 111.78112185139264,196.10339036029058 L 111.81801025554074,196.65777525244403 L 112.23651312398272,196.94946472320706 L 112.81376308699298,196.9018949423011 L 112.93852487982316,196.4248274546818 L 113.39101305000324,196.85432516139514 L 113.9682630130135,196.8067553804892 L 113.79060956911317,197.14537538658985 L 113.9858911285685,197.43155233645663 L 113.61295612521283,197.48399539269053 L 113.4353026813125,197.82261539879119 L 113.83489920042243,198.1136656239859 L 114.24360440292116,197.9579442868054 L 114.23449571953236,198.4047158491806 L 114.63409223864228,198.6957660743753 L 114.02094657747,198.84424985181903 L 114.06082618821354,199.51174942653876 L 113.4078009162977,198.99273362926274 L 112.79465525512542,199.14121740670646 L 112.71750745439029,199.69646628369375 L 113.08380263171159,199.97870408776723 L 112.64290173930439,200.23020736651938 L 112.58610244451178,200.79447942644396 L 112.04247438687737,200.39187586397517 L 111.27533173305805,200.56383799036385 L 111.49884632924298,199.98927230150642 L 110.95521827160857,199.58666873903763 L 110.34207261043629,199.73515251648135 L 110.02993125708291,200.20580691908273 L 109.728926949264,199.88363629392506 L 109.11578128809171,200.03212007136878 L 108.90223214602935,200.4716540740072 L 109.1926230366761,200.8580143457781 L 108.688683003967,200.91118807664566 L 108.47513386190464,201.35072207928408 L 108.63316754949015,201.73256198460115 L 109.00583106526345,201.72148284995237 L 108.79503279197186,202.12834880158454 L 108.95678854781436,202.50461406763534 L 108.5826878437821,202.55951740749 L 108.36040022456363,202.84697763730455 L 108.20858713974982,202.6144207473447 L 107.83448643571757,202.66932408719936 L 107.61867867532045,203.10542450855107 L 107.96900818953375,203.39729365372293 L 107.39765441876088,203.5373951911487 L 107.19383900953049,203.98792609511466 L 106.84210916889995,203.57591753332906 L 106.33063852275002,203.51159986926723 L 106.49037932826941,203.16390897154346 L 106.13864948763887,202.75190040975787 L 105.66611498525805,202.83448035130257 L 105.4032312593587,203.29952343281155 L 105.19358048287724,202.9170602928473 L 104.72104598049641,202.99964023439202 L 104.84185064224668,202.5050517310617 L 104.42961723177277,202.0659815782201 L 104.96265530399697,202.0104632277314 L 105.08345996574724,201.5158747244011 L 104.71975518238774,201.13147552739153 L 104.17173833906446,201.20746174288735 L 104.38466440621191,200.69434311273474 L 104.02827044385562,200.2798490390443 L 103.46934849521409,200.50349565182873 L 103.21102118135724,201.1614995366074 L 102.96558192670503,200.69592089656385 L 102.41619816264975,200.9312196594582 L 102.36934839255994,201.50955098036758 L 102.7967534544156,201.93372661513132 L 102.32249862247014,202.08788230127695 L 102.27564885238033,202.66621362218632 L 101.78514119540152,202.3050058414149 L 101.19508757362537,202.52445913416645 L 101.2946335384227,201.9437980606435 L 100.8041258814439,201.58259027987208 L 100.26676845437527,201.79971382001006 L 100.35013913956112,202.30387159247294 L 99.72941102730665,202.016837360148 L 99.19205360023803,202.23396090028598 L 99.34657160944566,201.5903958155821 L 98.9648615626392,201.11050157540487 L 99.50108961865331,200.94683073087825 L 99.65560762786095,200.30326564617437 L 99.28238011991702,199.7904369221084 L 98.67026502350701,199.67087914027925 L 98.90915261197311,199.2776081980424 L 98.53592510402919,198.76477947397643 L 99.05308372062483,198.65357838613244 L 99.02823979349749,198.16868950214075 L 99.60858895883727,198.52040770429193 L 100.11916165548386,198.37257039206276 L 100.2736796646915,197.72900530735888 L 99.6547767702198,197.36950075459333 L 100.42819767389915,197.08544022265502 L 100.58271568310678,196.44187513795114 L 100.20125956869494,195.98556868779966 L 99.56134885927817,195.90442612852266 L 99.78831095573844,195.51053171085928 L 99.41877651092625,195.03232945993818 L 98.8124841972738,195.3410314762411 L 99.02673819030602,196.092119295053 L 98.1794674214367,195.70555826067607 L 97.61773159762687,196.01054260310607 L 97.79946721098969,195.2692872005654 L 97.15462126974207,194.83226020843563 L 97.98120282435252,194.52803179802476 L 98.16293843771534,193.78677639548408 L 97.74369637235995,193.30142273619245 L 97.21756920361683,193.22003795248116 L 97.32445430700456,192.81606907690085 L 96.90521224164917,192.3307154176092 L 96.26877280064402,192.3325814612236 L 95.92574294325065,192.7435569157646 L 95.63233335963888,192.33444750483804 L 94.99589391863373,192.33631354845244 L 94.77091048370748,192.77228485753483 L 95.12222620910093,193.08784186957416 L 94.54592704878125,193.20825616661722 L 94.32094361385501,193.6442274756996 L 93.9460672900675,193.1865867269644 L 93.25489599416474,193.13224797483244 L 93.57119096628001,192.7289459782292 L 93.19631464249251,192.271305229494 L 92.5542569264726,192.23228137793382 L 92.37403832451837,192.9326699113171 L 91.91219921045268,192.19325752637366 L 91.27014149443278,192.15423367481347 L 91.09821777732007,192.76847651453852 L 91.72710881891076,193.10857409836976 L 90.92629406020735,193.38271935426354 L 90.75437034309465,193.9969621939886 L 91.05335765465769,194.6279130447423 L 91.68060260170444,194.54216135418042 L 91.35234496622074,195.25886389549595 L 91.65133227778378,195.88981474624964 L 91.18042124910802,195.873106735221 L 90.77996662382847,196.23738781646114 L 90.70951022043228,195.8563987241924 L 90.23859919175652,195.83969071316375 L 90.06667547464382,196.4539335528888 L 90.4608036402137,197.05483500649487 L 89.8947517575311,197.06817639261382 L 89.72282804041839,197.68241923233887 L 89.22710083979409,197.02181113662957 L 88.45324586531494,197.19399728189006 L 88.73137363916979,196.36120304092026 L 88.23564643854549,195.70059494521095 L 87.49026626799348,195.64526966866475 L 86.94055696505241,196.46956192815938 L 86.70049551475665,195.62784381355584 L 85.86852452125008,195.62412078344641 L 86.22992792152462,195.07428454452017 L 85.87350826256578,194.58055384439135 L 86.59133132179915,194.5244483055939 L 86.95273472207369,193.97461206666765 L 86.51351339712126,193.30899202178432 L 85.7544012077358,193.36042980958496 L 86.07429207216883,192.64337197690102 L 85.6350707472164,191.9777519320177 L 85.03783732232752,191.96075274559777 L 84.55852482789362,192.3798949057872 L 84.44060389743863,191.94375355917782 L 83.84337047254975,191.9267543727579 L 83.3753883389254,192.42245135647957 L 83.49960566309866,193.18905613853192 L 82.90740620530107,192.91814834020124 L 82.43942407167673,193.4138453239229 L 82.26729530815555,192.91235151425016 L 81.80433500115092,192.75255054448508 L 82.09516654463438,192.4108577045774 L 81.92303778111321,191.90936389490466 L 81.27733512720474,191.89929415492122 L 80.93304219175695,192.33167916790322 L 80.6514663147965,191.86104869279822 L 80.00000000000001,191.80127018922195 L 79.69135802469137,191.26668660663896 L 79.07407407407409,191.26668660663896 L 79.38271604938274,190.732103024056 L 79.07407407407409,190.197519441473 L 78.45679012345681,190.197519441473 L 78.14814814814817,190.732103024056 L 77.83950617283952,190.197519441473 L 77.22222222222224,190.197519441473 L 77.53086419753087,189.66293585889 L 77.22222222222223,189.12835227630703 L 77.83950617283952,189.12835227630703 L 78.14814814814815,188.59376869372403 L 77.8395061728395,188.05918511114103 L 77.22222222222223,188.05918511114103 L 77.53086419753087,187.52460152855807 L 77.22222222222223,186.99001794597507 L 76.60493827160495,186.99001794597507 L 76.2962962962963,187.52460152855807 L 75.98765432098766,186.99001794597507 L 75.37037037037038,186.99001794597507 L 75.06172839506173,187.52460152855807 L 75.37037037037038,188.05918511114106 L 74.7530864197531,188.05918511114103 L 74.44444444444446,188.59376869372403 L 74.13580246913581,188.05918511114103 L 73.51851851851852,188.05918511114103 L 73.82716049382717,187.52460152855807 L 73.51851851851852,186.99001794597507 L 72.90123456790124,186.99001794597507 L 72.5925925925926,187.52460152855807 L 72.28395061728395,186.99001794597507 L 71.66666666666667,186.99001794597507 L 71.97530864197532,186.45543436339207 L 71.66666666666667,185.92085078080908 L 72.28395061728395,185.9208507808091 L 72.5925925925926,185.3862671982261 L 72.28395061728395,184.8516836156431 L 71.66666666666667,184.8516836156431 L 71.97530864197532,184.31710003306014 L 71.66666666666667,183.78251645047715 L 72.28395061728396,183.78251645047715 L 72.59259259259261,183.24793286789415 L 72.90123456790124,183.78251645047715 L 73.51851851851853,183.78251645047715 L 73.82716049382718,183.24793286789415 L 73.51851851851853,182.71334928531115 L 74.13580246913581,182.71334928531118 L 74.44444444444446,182.17876570272819 L 74.13580246913581,181.6441821201452 L 73.51851851851853,181.6441821201452 L 73.82716049382718,181.10959853756222 L 73.51851851851853,180.57501495497922 L 72.90123456790126,180.57501495497922 L 72.59259259259261,181.10959853756222 L 72.28395061728396,180.57501495497922 L 71.66666666666669,180.57501495497922 L 71.97530864197532,180.04043137239623 L 71.66666666666667,179.50584778981326 L 72.28395061728396,179.50584778981326 L 72.5925925925926,178.97126420723026 L 72.28395061728395,178.43668062464727 L 71.66666666666667,178.43668062464727 L 71.97530864197532,177.9020970420643 L 71.66666666666667,177.3675134594813 L 71.0493827160494,177.3675134594813 L 70.74074074074075,177.9020970420643 L 70.4320987654321,177.3675134594813 L 69.81481481481482,177.3675134594813 L 69.50617283950618,177.9020970420643 L 69.81481481481482,178.4366806246473 L 69.19753086419755,178.43668062464727 L 68.8888888888889,178.97126420723026 L 68.58024691358025,178.43668062464727 L 67.96296296296296,178.43668062464727 L 68.27160493827161,177.9020970420643 L 67.96296296296296,177.3675134594813 L 67.34567901234568,177.3675134594813 L 67.03703703703704,177.9020970420643 L 66.72839506172839,177.3675134594813 L 66.11111111111111,177.3675134594813 L 65.80246913580247,177.9020970420643 L 66.11111111111111,178.4366806246473 L 65.49382716049384,178.43668062464727 L 65.18518518518519,178.97126420723026 L 65.49382716049384,179.50584778981326 L 66.11111111111111,179.50584778981326 L 65.80246913580247,180.04043137239623 L 66.11111111111111,180.57501495497922 L 65.49382716049384,180.57501495497922 L 65.18518518518519,181.10959853756222 L 64.87654320987654,180.57501495497922 L 64.25925925925927,180.57501495497922 L 63.95061728395062,181.10959853756222 L 64.25925925925927,181.64418212014522 L 63.64197530864198,181.6441821201452 L 63.333333333333336,182.17876570272819 L 63.0246913580247,181.6441821201452 L 62.40740740740741,181.6441821201452 L 62.71604938271605,181.10959853756222 L 62.40740740740741,180.57501495497922 L 61.79012345679013,180.57501495497922 L 61.48148148148148,181.10959853756222 L 61.17283950617284,180.57501495497922 L 60.55555555555556,180.57501495497922 L 60.864197530864196,180.04043137239623 L 60.55555555555555,179.50584778981323 L 61.17283950617284,179.50584778981326 L 61.48148148148148,178.97126420723026 L 61.17283950617284,178.43668062464727 L 60.55555555555556,178.43668062464727 L 60.864197530864196,177.9020970420643 L 60.55555555555556,177.3675134594813 L 59.93827160493827,177.3675134594813 L 59.629629629629626,177.9020970420643 L 59.32098765432099,177.3675134594813 L 58.7037037037037,177.3675134594813 L 58.39506172839506,177.9020970420643 L 58.70370370370371,178.4366806246473 L 58.08641975308642,178.43668062464727 L 57.77777777777778,178.97126420723026 L 57.46913580246914,178.43668062464727 L 56.851851851851855,178.43668062464727 L 57.160493827160494,177.9020970420643 L 56.851851851851855,177.3675134594813 L 56.23456790123457,177.3675134594813 L 55.925925925925924,177.9020970420643 L 55.617283950617285,177.3675134594813 L 55.0,177.3675134594813 L 55.30864197530864,176.8329298768983 L 54.99999999999999,176.2983462943153 L 55.617283950617285,176.29834629431534 L 55.925925925925924,175.76376271173234 L 55.617283950617285,175.22917912914934 L 55.0,175.22917912914934 L 55.30864197530864,174.69459554656638 L 55.0,174.16001196398338 L 55.617283950617285,174.16001196398338 L 55.92592592592593,173.62542838140038 L 56.23456790123457,174.16001196398338 L 56.851851851851855,174.16001196398338 L 57.160493827160494,173.62542838140038 L 56.85185185185185,173.0908447988174 L 57.46913580246914,173.09084479881741 L 57.77777777777778,172.55626121623442 L 57.46913580246914,172.02167763365142 L 56.851851851851855,172.02167763365142 L 57.160493827160494,171.48709405106845 L 56.851851851851855,170.95251046848546 L 56.23456790123457,170.95251046848546 L 55.925925925925924,171.48709405106845 L 55.617283950617285,170.95251046848546 L 55.0,170.95251046848546 L 55.30864197530864,170.41792688590246 L 54.99999999999999,169.88334330331946 L 55.617283950617285,169.8833433033195 L 55.925925925925924,169.3487597207365 L 55.617283950617285,168.8141761381535 L 55.0,168.8141761381535 L 55.30864197530864,168.27959255557053 L 55.0,167.74500897298753 L 55.617283950617285,167.74500897298753 L 55.92592592592593,167.21042539040454 L 56.23456790123457,167.74500897298753 L 56.851851851851855,167.74500897298753 L 57.1604938271605,167.21042539040454 L 56.85185185185186,166.67584180782154 L 57.46913580246914,166.67584180782157 L 57.777777777777786,166.14125822523857 L 58.086419753086425,166.67584180782157 L 58.70370370370371,166.67584180782157 L 58.39506172839507,167.21042539040454 L 58.70370370370371,167.74500897298753 L 59.320987654320994,167.74500897298753 L 59.62962962962964,167.21042539040454 L 59.93827160493828,167.74500897298753 L 60.555555555555564,167.74500897298753 L 60.8641975308642,167.21042539040454 L 60.55555555555556,166.67584180782154 L 61.17283950617285,166.67584180782157 L 61.48148148148149,166.14125822523857 L 61.17283950617285,165.60667464265558 L 60.555555555555564,165.60667464265558 L 60.8641975308642,165.0720910600726 L 60.555555555555564,164.5375074774896 L 61.17283950617285,164.5375074774896 L 61.481481481481495,164.00292389490662 L 61.790123456790134,164.5375074774896 L 62.40740740740742,164.5375074774896 L 62.71604938271606,164.00292389490662 L 62.40740740740741,163.46834031232362 L 63.024691358024704,163.46834031232365 L 63.33333333333334,162.93375672974065 L 63.024691358024704,162.39917314715765 L 62.40740740740742,162.39917314715765 L 62.71604938271606,161.8645895645747 L 62.40740740740742,161.3300059819917 L 61.790123456790134,161.3300059819917 L 61.48148148148149,161.8645895645747 L 61.17283950617285,161.3300059819917 L 60.555555555555564,161.3300059819917 L 60.8641975308642,160.7954223994087 L 60.55555555555556,160.2608388168257 L 61.17283950617285,160.26083881682572 L 61.48148148148149,159.72625523424273 L 61.17283950617285,159.19167165165973 L 60.555555555555564,159.19167165165973 L 60.8641975308642,158.65708806907676 L 60.555555555555564,158.12250448649377 L 59.93827160493828,158.12250448649377 L 59.62962962962963,158.65708806907676 L 59.320987654320994,158.12250448649377 L 58.70370370370371,158.12250448649377 L 58.39506172839507,158.65708806907676 L 58.70370370370371,159.19167165165976 L 58.086419753086425,159.19167165165973 L 57.777777777777786,159.72625523424273 L 57.46913580246915,159.19167165165973 L 56.85185185185186,159.19167165165973 L 57.1604938271605,158.65708806907676 L 56.85185185185186,158.12250448649377 L 56.23456790123458,158.12250448649377 L 55.92592592592593,158.65708806907676 L 55.61728395061729,158.12250448649377 L 55.00000000000001,158.12250448649377 L 55.308641975308646,157.58792090391077 L 55.0,157.05333732132777 L 55.61728395061729,157.0533373213278 L 55.92592592592593,156.5187537387448 L 55.617283950617285,155.9841701561618 L 55.0,155.9841701561618 L 55.308641975308646,155.44958657357884 L 55.0,154.91500299099584 L 55.617283950617285,154.91500299099584 L 55.92592592592593,154.38041940841285 L 56.23456790123457,154.91500299099584 L 56.851851851851855,154.91500299099584 L 57.160493827160494,154.38041940841285 L 56.85185185185185,153.84583582582985 L 57.46913580246914,153.84583582582988 L 57.77777777777778,153.31125224324688 L 57.46913580246914,152.7766686606639 L 56.851851851851855,152.7766686606639 L 57.160493827160494,152.24208507808092 L 56.851851851851855,151.70750149549792 L 56.23456790123457,151.70750149549792 L 55.925925925925924,152.24208507808092 L 55.617283950617285,151.70750149549792 L 55.0,151.70750149549792 L 55.30864197530864,151.17291791291493 L 54.99999999999999,150.63833433033193 L 55.617283950617285,150.63833433033196 L 55.925925925925924,150.10375074774896 L 55.617283950617285,149.56916716516596 L 55.0,149.56916716516596 L 55.30864197530864,149.034583582583 L 55.0,148.5 L 55.30517895898263,147.96936708485873 L 54.97384968550918,147.50337330509788 L 55.61035791796526,147.43873416971743 L 55.91553687694789,146.90810125457617 L 55.750863576514405,146.39368129070945 L 55.24140365960149,146.36708518633512 L 55.605105047228164,145.92981341911607 L 55.47077698330369,145.44270490471683 L 55.93361512360301,145.40026809118132 L 56.12621955210356,144.99003423211192 L 56.365377680420025,145.36584556225364 L 56.83107375389577,145.31620250915233 L 57.1362527128784,144.78556959401106 L 56.79855082180235,144.39568381410734 L 57.44143167186103,144.25493667886977 L 57.74661063084366,143.7243037637285 L 57.40196793450491,143.10314693628493 L 56.79757264704357,142.89541450424508 L 57.05732523816616,142.4819901088414 L 56.712682541827405,141.86083328139782 L 55.89694984293101,141.6583362706506 L 55.223089407429086,142.3163243796122 L 55.08121714403461,141.45583925990337 L 54.26548444513821,141.25334224915616 L 54.73657444769586,140.8346824324598 L 54.3981816726695,140.2746804099094 L 55.207664450253496,140.41602261576347 L 55.67875445281114,139.9973627990671 L 55.33411175647239,139.37620597162353 L 54.615974806587,139.56434186262786 L 54.989469060133636,138.75504914418 L 54.644826363794884,138.13389231673642 L 55.294648019116266,138.2244162290387 L 55.56487267715574,137.55700482312196 L 55.94446967443765,138.314940141341 L 56.59429132975903,138.40546405364327 L 57.048969418855386,137.818016140844 L 56.90298461413409,137.1664238923665 L 57.50364750795174,137.23056822804475 L 57.958325597048095,136.64312031524548 L 58.15346916327312,137.32109214034705 L 58.863790669814584,137.36217114024143 L 58.34861272949815,137.99906396544858 L 58.54375629572318,138.67703579055015 L 59.18113158668561,138.75773005371002 L 59.57732266810131,138.4059296550418 L 59.84558875337825,138.83836733811822 L 60.493221261687324,138.948607527457 L 60.793676637809895,138.44192117299636 L 60.50779980046785,137.93096703851336 L 61.10855255274323,137.8989070579569 L 61.408758138635214,137.35670878203317 L 61.09513797112886,136.96034525349938 L 60.690386226415285,136.98558191254378 L 60.7815178036225,136.56398172496557 L 60.46789763611614,136.1676181964318 L 61.08669676260513,136.0333488098243 L 61.18251260331,135.31700859978244 L 61.70549588909411,135.89907942321682 L 62.3242950155831,135.76481003660933 L 62.62947397456573,135.23417712146806 L 62.325558258052965,134.63400209537187 L 62.93465293354836,134.70354420632677 L 63.23983189253099,134.1729112911855 L 62.9763986466934,133.71427335777219 L 62.49764572315876,133.54896674006744 L 62.71296540085581,133.2556354243589 L 62.44953215501822,132.79699749094559 L 61.99772076957254,132.7643486790034 L 61.624944551888156,133.10181668389902 L 61.543801781152276,132.76077752154995 L 61.09956552829055,132.76324771818673 L 61.28612115802885,132.3158597090264 L 60.99919306030883,131.86598371671295 L 61.47267678776715,131.86847169986603 L 61.65923241750545,131.4210836907057 L 61.39753540902897,130.98446451966015 L 60.97447064643667,130.89236634264864 L 61.125757332507746,130.51042101719526 L 60.86893267999268,130.0451698904658 L 60.396989817420895,130.08454404546424 L 60.24464212181991,130.55160946198856 L 59.893284436225684,130.11457148235152 L 59.4360707641943,130.1239161535869 L 59.3341202461898,130.6469698101844 L 59.580509837234544,131.07376916376793 L 59.23216972818529,131.1700234667819 L 59.13021921018079,131.69307712337942 L 58.78591923410019,131.24260422843025 L 58.296218040144375,131.47846971325566 L 58.441619258019585,130.7921313334811 L 58.09731928193899,130.34165843853194 L 57.66542543459666,130.37745329106426 L 57.35198829226704,130.72285529147507 L 57.23353158725435,130.4132481435966 L 56.801637739912024,130.44904299612892 L 56.98851907635845,129.99622133371176 L 56.71263316843635,129.6853778663549 L 57.175400412804876,129.54339967129457 L 57.3622817492513,129.0905780088774 L 57.16185389673964,128.585640663643 L 56.65247408951508,128.61193790272324 L 56.96142604422799,128.08070331840864 L 56.76099819171633,127.57576597317426 L 57.14830738067441,127.62788165599146 L 57.41467037726778,127.34064593189692 L 57.535616569632495,127.67999733880865 L 57.92292575859057,127.73211302162585 L 58.135290006539435,127.28678961546744 L 57.67309235227516,126.94838186116026 L 58.31486691526308,126.83793447621943 L 58.48356976792985,126.37364803437431 L 58.23044727902427,125.92820557107721 L 57.721591192690205,125.93828086207152 L 57.97732479011868,125.4827631077801 L 57.7242023012131,125.037320644483 L 57.28232354018713,125.18282807560956 L 57.263670819309,125.6045365622678 L 56.84044477916116,125.32833550673612 L 56.39856601813519,125.47384293786268 L 56.58732229025557,124.88289304343903 L 56.1605157488058,124.58972320903852 L 56.77607856237596,124.29194314901537 L 56.96483483449634,123.70099325459171 L 56.711712345590755,123.25555079129461 L 56.21528836115417,123.16230606131643 L 56.458589856685165,122.8101083279975 L 56.20546736777958,122.3646658647004 L 56.78574571338182,122.261744708689 L 57.086891909136426,121.65319111165347 L 57.36602405898407,122.15882355267759 L 57.946302404586305,122.05590239666618 L 58.22778296120442,121.61692451277135 L 58.095557819808754,121.21902413250383 L 58.509263517822525,121.17794662887653 L 58.79074407444064,120.73896874498169 L 59.08954186342477,121.07502547286511 L 59.57699651945993,121.11710868625916 L 59.3883396524089,121.41108220074854 L 59.687137441393034,121.74713892863195 L 60.26741578699527,121.64421777262055 L 60.373363624733464,121.01886102775921 L 60.84769413259752,121.54129661660915 L 61.427972478199756,121.43837546059774 L 61.61356355722639,121.0144320417917 L 61.33391236869036,120.58995833151693 L 61.799154636253036,120.59048862298563 L 61.98474571527967,120.16654520417958 L 61.674496328687475,119.70459401861454 L 61.22997419474728,119.79886699686827 L 61.38259008668257,119.27419873838338 L 61.10918719132468,118.82541663518903 L 61.606025807930386,118.8323801278756 L 61.9373510264777,118.46630703988264 L 62.1028644245361,118.83934362056218 L 62.59970304114181,118.84630711324874 L 62.79089270523453,118.39272925417167 L 62.392209520553244,118.11639088304139 L 63.00795033269161,117.95346080490803 L 63.23216053182934,117.53066523507688 L 63.6119735381394,117.86193410412335 L 63.994566120548065,117.66865504603682 L 63.991786544449475,118.19320297316982 L 64.37159955075954,118.52447184221629 L 64.96230637135936,118.4216121748876 L 65.20344845466073,117.77620166538944 L 65.5530131919592,118.31875250755893 L 66.14372001255902,118.21589284023024 L 65.9116893307376,118.67080206983957 L 66.18382979065248,119.02569254042113 L 65.72088309555284,119.09932637836998 L 65.51103856968973,119.51827844935568 L 65.89345308562535,119.84142626371992 L 66.27975489763546,119.68501377476107 L 66.29111240199802,120.1650203838539 L 66.65047758861994,120.51208505649508 L 67.23075593422217,120.40916390048368 L 67.4457371075654,119.8749672873254 L 67.81103427982443,120.30624274447227 L 68.39131262542666,120.20332158846087 L 68.46716697782774,119.68416376204343 L 68.00891332533425,119.52895149296177 L 68.54302133022883,119.16500593562598 L 68.6188756826299,118.64584810920854 L 69.12329967583106,119.06208477961458 L 69.77368841476239,118.76078112117344 L 69.62772366903222,119.4783214500206 L 70.13214766223338,119.89455812042664 L 70.71242600783562,119.79163696441523 L 70.9857733315786,119.34785203382127 L 71.29270435343787,119.68871580840383 L 71.87298269904011,119.58579465239242 L 72.14751856696188,119.0503064873365 L 71.63488000001071,118.61729238555533 L 72.42205443488366,118.51481832228056 L 72.69659030280543,117.97933015722464 L 72.30924455247956,117.53336337662442 L 71.64788426987135,117.74091735066449 L 71.92189880215368,117.08739659602422 L 71.5345530518278,116.641429815424 L 72.19643467007545,116.55190843096828 L 72.44432560002143,115.88941677166144 L 72.8583162883231,116.46238704651256 L 73.52019790657074,116.37286566205684 L 73.78514133218545,115.84979048668755 L 73.41781564350454,115.49994019257363 L 74.07272029412455,115.29134949182509 L 74.34380551033607,114.76640116688905 L 74.19907241157624,114.2630492842102 L 73.80599083776497,114.17922491352061 L 74.04946110069592,113.75740969428281 L 73.91835580334377,113.2792171183528 L 73.31481720695322,113.21529244123029 L 72.92426603829607,113.81581478282753 L 72.71127861056267,113.15136776410777 L 72.10774001417212,113.08744308698526 L 72.5841690142609,112.65394682418842 L 72.35515114188827,112.12116721573648 L 73.0398790238643,112.24771434643387 L 73.49290609635149,111.79203306981655 L 73.34327612626525,111.28773864067352 L 72.83427245277186,111.22902065591288 L 73.21801625343709,110.81896122299187 L 73.0674563893592,110.3048490212803 L 73.54173047087117,110.2592487009005 L 73.72080100018925,109.8270230716178 L 74.01600455238315,110.2136483805207 L 74.49027863389513,110.16804806014089 L 74.79581904068068,109.69718506776903 L 74.56826321882524,109.07033465504223 L 75.10135944746625,109.22632207539715 L 75.4068998542518,108.75545908302529 L 75.57563352897822,109.18072175501734 L 76.11745039840193,109.25469289771081 L 75.74436720370464,109.6059844270094 L 75.91310087843105,110.03124709900146 L 76.38101781184298,109.99744130583244 L 76.55200159460864,109.56393359500879 L 76.86741693503417,109.95200413932486 L 77.33592312296699,109.89444613786205 L 77.63193166485954,109.37269987929716 L 77.4438177772678,108.68455145752847 L 77.9279402067521,108.85095362073228 L 78.22394874864464,108.3292073621674 L 77.79236035138537,107.93426748764182 L 77.29116900326427,107.996789651488 L 77.3607719541261,107.53932761311626 L 76.92918355686682,107.14438773859068 L 77.65678049601865,107.01758135455137 L 77.84811578199051,106.42953860014312 L 78.38437743517048,106.89077497051204 L 79.11197437432232,106.76396858647273 L 79.42759983608822,106.24212638255501 L 78.96300930734678,105.85880895746331 L 79.71678440532374,105.7210000650848 L 79.99999999999997,105.19872981077808 L 80.61728395061725,105.19872981077808 L 80.9259259259259,104.6641462281951 L 81.23456790123454,105.19872981077808 L 81.85185185185182,105.19872981077808 L 82.16049382716047,104.6641462281951 L 81.85185185185182,104.12956264561211 L 82.4691358024691,104.1295626456121 L 82.77777777777774,103.59497906302911 L 83.08641975308639,104.1295626456121 L 83.70370370370368,104.1295626456121 L 83.39506172839504,104.6641462281951 L 83.70370370370368,105.19872981077808 L 84.32098765432096,105.19872981077808 L 84.6296296296296,104.6641462281951 L 84.93827160493825,105.19872981077808 L 85.55555555555553,105.19872981077808 L 85.86419753086417,104.6641462281951 L 85.55555555555553,104.12956264561211 L 86.1728395061728,104.1295626456121 L 86.48148148148145,103.59497906302911 L 86.1728395061728,103.06039548044613 L 85.55555555555553,103.06039548044613 L 85.86419753086417,102.52581189786314 L 85.55555555555553,101.99122831528015 L 86.17283950617282,101.99122831528015 L 86.48148148148147,101.45664473269716 L 86.7901234567901,101.99122831528015 L 87.40740740740739,101.99122831528015 L 87.71604938271604,101.45664473269717 L 87.40740740740739,100.92206115011419 L 88.02469135802467,100.92206115011417 L 88.33333333333331,100.38747756753119 L 88.64197530864196,100.92206115011417 L 89.25925925925924,100.92206115011417 L 88.95061728395059,101.45664473269717 L 89.25925925925924,101.99122831528015 L 89.87654320987652,101.99122831528015 L 90.18518518518516,101.45664473269717 L 90.49382716049381,101.99122831528015 L 91.11111111111109,101.99122831528015 L 90.80246913580244,102.52581189786314 L 91.11111111111109,103.06039548044612 L 90.49382716049381,103.06039548044613 L 90.18518518518516,103.59497906302911 L 90.49382716049381,104.1295626456121 L 91.11111111111109,104.1295626456121 L 90.80246913580244,104.6641462281951 L 91.11111111111109,105.19872981077808 L 91.72839506172836,105.19872981077808 L 92.03703703703701,104.6641462281951 L 92.34567901234566,105.19872981077808 L 92.96296296296293,105.19872981077808 L 93.27160493827158,104.6641462281951 L 92.96296296296293,104.12956264561211 L 93.58024691358021,104.1295626456121 L 93.88888888888886,103.59497906302911 L 94.1975308641975,104.1295626456121 L 94.8148148148148,104.1295626456121 L 94.50617283950615,104.6641462281951 L 94.8148148148148,105.19872981077808 L 95.43209876543207,105.19872981077808 L 95.74074074074072,104.6641462281951 L 96.04938271604937,105.19872981077808 L 96.66666666666664,105.19872981077808 L 96.97530864197529,104.6641462281951 L 96.66666666666664,104.12956264561211 L 97.28395061728392,104.1295626456121 L 97.59259259259257,103.59497906302911 L 97.28395061728392,103.06039548044613 L 96.66666666666664,103.06039548044613 L 96.97530864197529,102.52581189786314 L 96.66666666666664,101.99122831528015 L 97.28395061728394,101.99122831528015 L 97.59259259259258,101.45664473269716 L 97.90123456790121,101.99122831528015 L 98.5185185185185,101.99122831528015 L 98.82716049382715,101.45664473269717 L 98.5185185185185,100.92206115011419 L 99.13580246913578,100.92206115011417 L 99.44444444444443,100.38747756753119 L 99.13580246913578,99.85289398494821 L 98.5185185185185,99.85289398494821 L 98.82716049382715,99.31831040236521 L 98.5185185185185,98.78372681978223 L 97.90123456790123,98.78372681978223 L 97.59259259259258,99.31831040236521 L 97.28395061728394,98.78372681978223 L 96.66666666666666,98.78372681978223 L 96.9753086419753,98.24914323719925 L 96.66666666666666,97.71455965461627 L 97.28395061728394,97.71455965461625 L 97.59259259259258,97.17997607203327 L 97.28395061728394,96.64539248945029 L 96.66666666666666,96.64539248945029 L 96.9753086419753,96.11080890686729 L 96.66666666666666,95.57622532428431 L 97.28395061728394,95.57622532428431 L 97.59259259259258,95.04164174170133 L 97.90123456790123,95.57622532428431 L 98.5185185185185,95.57622532428431 L 98.82716049382715,95.04164174170133 L 98.5185185185185,94.50705815911834 L 99.13580246913578,94.50705815911833 L 99.44444444444443,93.97247457653535 L 99.75308641975307,94.50705815911833 L 100.37037037037035,94.50705815911833 L 100.0617283950617,95.04164174170133 L 100.37037037037035,95.57622532428431 L 100.98765432098763,95.57622532428431 L 101.29629629629628,95.04164174170133 L 101.60493827160492,95.57622532428431 L 102.2222222222222,95.57622532428431 L 102.53086419753085,95.04164174170133 L 102.2222222222222,94.50705815911834 L 102.83950617283948,94.50705815911833 L 103.14814814814812,93.97247457653535 L 102.83950617283948,93.43789099395237 L 102.2222222222222,93.43789099395237 L 102.53086419753085,92.90330741136937 L 102.2222222222222,92.36872382878639 L 102.83950617283949,92.36872382878639 L 103.14814814814814,91.83414024620339 L 103.45679012345677,92.36872382878639 L 104.07407407407406,92.36872382878639 L 104.38271604938271,91.8341402462034 L 104.07407407407406,91.29955666362042 L 104.69135802469134,91.29955666362041 L 104.99999999999999,90.76497308103743 L 105.30864197530863,91.29955666362041 L 105.92592592592591,91.29955666362041 L 105.61728395061726,91.8341402462034 L 105.92592592592591,92.36872382878639 L 106.54320987654319,92.36872382878639 L 106.85185185185183,91.8341402462034 L 107.16049382716048,92.36872382878639 L 107.77777777777776,92.36872382878639 L 107.46913580246911,92.90330741136937 L 107.77777777777776,93.43789099395235 L 107.16049382716048,93.43789099395237 L 106.85185185185183,93.97247457653535 L 107.16049382716048,94.50705815911833 L 107.77777777777776,94.50705815911833 L 107.46913580246911,95.04164174170133 L 107.77777777777776,95.57622532428431 L 108.39506172839504,95.57622532428431 L 108.70370370370368,95.04164174170133 L 109.01234567901233,95.57622532428431 L 109.6296296296296,95.57622532428431 L 109.93827160493825,95.04164174170133 L 109.6296296296296,94.50705815911834 L 110.24691358024688,94.50705815911833 L 110.55555555555553,93.97247457653535 L 110.86419753086417,94.50705815911833 L 111.48148148148147,94.50705815911833 L 111.17283950617282,95.04164174170133 L 111.48148148148147,95.57622532428431 L 112.09876543209874,95.57622532428431 L 112.40740740740739,95.04164174170133 L 112.71604938271604,95.57622532428431 L 113.33333333333331,95.57622532428431 L 113.02469135802467,96.11080890686729 L 113.33333333333331,96.64539248945027 L 112.71604938271604,96.64539248945029 L 112.40740740740739,97.17997607203327 L 112.71604938271604,97.71455965461625 L 113.33333333333331,97.71455965461625 L 113.02469135802467,98.24914323719925 L 113.33333333333331,98.78372681978223 L 112.71604938271604,98.78372681978223 L 112.40740740740739,99.31831040236521 L 112.09876543209874,98.78372681978223 L 111.48148148148147,98.78372681978223 L 111.17283950617282,99.31831040236521 L 111.48148148148147,99.8528939849482 L 110.86419753086419,99.85289398494821 L 110.55555555555554,100.38747756753119 L 110.86419753086419,100.92206115011417 L 111.48148148148147,100.92206115011417 L 111.17283950617282,101.45664473269717 L 111.48148148148147,101.99122831528015 L 112.09876543209874,101.99122831528015 L 112.40740740740739,101.45664473269717 L 112.71604938271604,101.99122831528015 L 113.33333333333331,101.99122831528015 L 113.02469135802467,102.52581189786314 L 113.33333333333331,103.06039548044612 L 112.71604938271604,103.06039548044613 L 112.40740740740739,103.59497906302911 L 112.71604938271604,104.1295626456121 L 113.33333333333331,104.1295626456121 L 113.02469135802467,104.6641462281951 L 113.33333333333331,105.19872981077808 L 113.95061728395059,105.19872981077808 L 114.25925925925924,104.6641462281951 L 114.56790123456788,105.19872981077808 L 115.18518518518516,105.19872981077808 L 115.49382716049381,104.6641462281951 L 115.18518518518516,104.12956264561211 L 115.80246913580244,104.1295626456121 L 116.11111111111109,103.59497906302911 L 116.41975308641973,104.1295626456121 L 117.03703703703702,104.1295626456121 L 116.72839506172838,104.6641462281951 L 117.03703703703702,105.19872981077808 L 117.6543209876543,105.19872981077808 L 117.96296296296295,104.6641462281951 L 118.2716049382716,105.19872981077808 L 118.88888888888887,105.19872981077808 L 119.19753086419752,104.6641462281951 L 118.88888888888887,104.12956264561211 L 119.50617283950615,104.1295626456121 L 119.8148148148148,103.59497906302911 L 119.50617283950615,103.06039548044613 L 118.88888888888887,103.06039548044613 L 119.19753086419752,102.52581189786314 L 118.88888888888887,101.99122831528015 L 119.50617283950616,101.99122831528015 L 119.81481481481481,101.45664473269716 L 120.12345679012344,101.99122831528015 L 120.74074074074073,101.99122831528015 L 121.04938271604938,101.45664473269717 L 120.74074074074073,100.92206115011419 L 121.35802469135801,100.92206115011417 L 121.66666666666666,100.38747756753119 L 121.9753086419753,100.92206115011417 L 122.59259259259258,100.92206115011417 L 122.28395061728394,101.45664473269717 L 122.59259259259258,101.99122831528015 L 123.20987654320986,101.99122831528015 L 123.5185185185185,101.45664473269717 L 123.82716049382715,101.99122831528015 L 124.44444444444443,101.99122831528015 L 124.1358024691358,102.52581189786314 L 124.44444444444444,103.06039548044612 L 123.82716049382715,103.06039548044613 L 123.51851851851852,103.59497906302911 L 123.82716049382717,104.1295626456121 L 124.44444444444444,104.1295626456121 L 124.1358024691358,104.6641462281951 L 124.44444444444444,105.19872981077808 L 125.06172839506172,105.19872981077808 L 125.37037037037037,104.6641462281951 L 125.67901234567901,105.19872981077808 L 126.29629629629629,105.19872981077808 L 126.60493827160494,104.6641462281951 L 126.29629629629629,104.12956264561211 L 126.91358024691357,104.1295626456121 L 127.22222222222221,103.59497906302911 L 127.53086419753086,104.1295626456121 L 128.14814814814815,104.1295626456121 L 127.8395061728395,104.6641462281951 L 128.14814814814815,105.19872981077808 L 128.76543209876544,105.19872981077808 L 129.07407407407408,104.6641462281951 L 129.3827160493827,105.19872981077808 L 130.0,105.19872981077808 L 130.32915025966437,105.72729840101721 L 130.96977534245488,105.79628642636133 L 130.65830051932878,106.25586699125634 L 130.98745077899315,106.78443558149547 L 131.67212579397827,106.59000309662308 L 131.8259144967046,105.99794812900768 L 132.3568008089634,106.39557061175067 L 133.04147582394853,106.20113812687828 L 132.67564311956417,106.9367163696881 L 133.06106708045309,107.68148477490642 L 132.30981041517984,107.67229461249794 L 131.94397771079548,108.40787285530776 L 132.2329534635044,108.94592355554812 L 132.7539409757471,108.99743468329643 L 132.48494754777417,109.49135170874439 L 132.77777777777777,110.00998205402496 L 133.49684536276277,110.06855133709327 L 133.880366665836,109.35055142067407 L 134.21591294774777,110.12712062016158 L 134.93498053273277,110.18568990322989 L 135.29632142992384,109.45928432346615 L 134.93274778265862,108.90717707261491 L 135.65766232711488,108.73287874370241 L 136.01900322430595,108.00647316393868 L 136.37672991209988,108.79144802677072 L 137.36640079919593,108.82416127373818 L 136.7344565998938,109.57642288960275 L 137.09218328768773,110.3613977524348 L 137.81125087267273,110.4199670355031 L 138.25038673239513,109.8381508027319 L 138.53031845765773,110.47853631857141 L 139.24938604264273,110.53710560163972 L 138.8389604329664,111.0131199011544 L 138.89745364355215,111.6312090982692 L 138.42853482329002,111.48913420066908 L 138.01810921361368,111.96514850018376 L 138.30376453611447,112.49947283490731 L 138.94947484050627,112.593995560809 L 138.58941985861523,113.03379716963086 L 138.87507518111602,113.56812150435441 L 138.1789942489389,113.50981146914553 L 137.89705501706624,114.25524070210106 L 137.48291331676174,113.45150143393667 L 136.7868323845846,113.3931913987278 L 136.37640677490828,113.86920569824247 L 136.52156625622314,114.4332547321406 L 135.9659811652319,114.34521999775716 L 135.55555555555557,114.82123429727183 L 135.83358861934676,115.36512021756737 L 136.44208918898786,115.57448073682241 L 136.1116216831379,115.90900613786289 L 136.3896547469291,116.45289205815843 L 137.13539724786267,116.31116844677031 L 137.43509372802487,115.55005160284041 L 137.88113974879627,116.16944483538218 L 138.62688224972985,116.02772122399406 L 138.23908872812012,116.69841449205671 L 138.48642573845572,117.56677696536157 L 137.87638403189487,117.43816505316428 L 137.4969681181382,118.13457266488184 L 137.77575652320326,118.63387729009413 L 138.40148552627804,118.83314353977366 L 138.05454492826829,119.13318191530642 L 138.33333333333334,119.63248654051871 L 138.8539861839813,119.43432199652385 L 139.00652608998152,118.87826160582058 L 139.3746390346293,119.23615745252897 L 139.89529188527726,119.03799290853411 L 139.9125635539969,118.55742906332395 L 139.55840293589063,118.30865015408929 L 139.92983522271658,118.07686521811381 L 139.94710689143622,117.59630137290365 L 140.45048807336454,117.87870067411893 L 140.97206097757623,117.70240103177328 L 140.95386925529283,118.16109997533421 L 141.45725043722115,118.44349927654949 L 141.9779032878691,118.24533473255462 L 142.17085845163987,117.70567685074552 L 142.4985561385171,118.04717018855975 L 143.01920898916507,117.84900564456488 L 143.2743547656914,117.28880165426783 L 142.90076111000096,116.87157913506766 L 143.5295005422178,116.72859766397079 L 143.78464631874414,116.16839367367373 L 143.3270584118925,115.84581898947314 L 142.81659812597644,116.18743193566688 L 142.8813425509891,115.51038460207366 L 142.39207627083186,115.20127879850635 L 143.111412063329,114.96344643326509 L 143.35317385945217,114.20186292178101 L 143.8307478558261,114.72561406802383 L 144.55008364832324,114.48778170278257 L 144.80522942484959,113.92757771248552 L 144.35153960578015,113.43460164970587 L 145.06037520137596,113.36737372218847 L 145.3155209779023,112.80716973189142 L 145.57025007411903,113.16930230669284 L 145.97168023900298,113.09144150326831 L 145.82497917033575,113.53143488149426 L 146.07970826655247,113.89356745629568 L 146.51028839484957,113.75725846431203 L 146.59492775629462,113.26508163952508 L 146.9452139996802,113.57705668254043 L 147.40271830977954,113.44687065678465 L 147.21644405825393,113.95790216475642 L 147.63403483580865,114.43479513978419 L 147.03016980672828,114.4689336727282 L 146.84389555520266,114.97996518069996 L 147.09862465141939,115.34209775550138 L 147.5972663419732,115.38220095224756 L 147.3533537476361,115.7042303303028 L 147.60808284385283,116.06636290510423 L 148.17797606637697,115.93963211664627 L 148.50742534642347,115.36031247794315 L 148.70086142195606,115.79696159746102 L 149.22494500067688,115.61451493691276 L 149.25027186940227,114.99704130362709 L 148.70907438073985,114.60453020103402 L 149.28243981653895,114.39760091337979 L 149.29339597468942,113.77140284461896 L 149.78173873613167,114.2576419581203 L 150.26860691669702,113.86836056947472 L 150.32926349393097,114.72321193663049 L 150.84180715750094,115.16266696872128 L 151.3807612097756,115.01205097932413 L 151.39703886235296,114.3610124449968 L 151.91971526205032,114.86143498992696 L 152.458669314325,114.71081900052981 L 152.26637458722533,115.36909021210255 L 152.82959855215552,115.94883447495884 L 152.086581893046,116.08299159935692 L 151.90179008146382,116.77987580021848 L 152.32444179297661,117.44760268692711 L 153.09584157892343,117.48595368796538 L 152.74709350448938,118.11532957363575 L 153.16974521600218,118.78305646034438 L 152.50022418799136,118.87209854832228 L 152.41926522142649,119.43346590425956 L 151.83070315998054,118.96114063630019 L 151.16118213196972,119.05018272427809 L 150.95012200968168,119.75433084633194 L 151.57027328404433,120.3724689323843 L 150.7390618873936,120.4584789683858 L 150.52800176510556,121.16262709043966 L 150.9601656328222,121.62784243560789 L 151.47926775784953,121.44999280539848 L 151.40027724040866,122.12636413446512 L 151.81317181870557,122.63390264919084 L 152.35741378735696,122.5548687414079 L 152.5835208081919,122.14007265156584 L 152.90165575600838,122.47583483362496 L 153.44589772465977,122.39680092584202 L 153.27472590369553,122.96217172356779 L 153.56921238888927,123.56270227071404 L 153.13201180548037,123.57283655947107 L 153.0085891716477,124.14426864082152 L 153.4083236139247,124.62928463994696 L 153.933251294173,124.42679899437594 L 153.80805805620165,125.11430063907238 L 154.20779249847863,125.59931663819782 L 153.58440824485723,125.82321869843689 L 153.46810401426413,126.5413249012111 L 152.96102399123583,126.04712075867597 L 152.33763973761444,126.27102281891504 L 152.1229915774477,126.79490751932273 L 152.5481166198985,127.13860016790031 L 151.88296121710155,127.28557679058876 L 151.6930657171455,127.76962935296915 L 151.2833114093194,127.48824751933161 L 150.77601520921343,127.70964915565719 L 150.88688667080876,127.2177938718895 L 150.46748697675028,126.94272899963228 L 149.82855480003767,127.17582756571443 L 149.56442275678498,127.78442568612977 L 149.2240602276595,127.3784522464609 L 148.5973342158861,127.6144351803495 L 148.39855099585924,128.35881463815045 L 148.86790865825117,128.8601967198873 L 148.1997677758324,129.10319409595138 L 148.00098455580556,129.84757355375234 L 148.51382379386123,130.3938725652008 L 149.25246233694315,130.19821014361932 L 149.0281572914037,130.89143162423372 L 149.5553064659375,131.45084060767516 L 148.8338558280524,131.64651734745846 L 148.7861439670976,132.2489826246924 L 148.0856961390817,131.80813900850143 L 147.34552939139138,131.9785642639579 L 147.11924181648314,132.6744572660584 L 147.4306700451454,133.28895420742424 L 146.8929542415749,133.37035026815886 L 146.66666666666666,134.06624327025935 L 146.9753086419753,134.60082685284235 L 147.52085574863307,134.57112120913737 L 147.28395061728395,135.1354104354253 L 147.59259259259258,135.6699940180083 L 148.20064484819434,135.46375442257863 L 148.406053114886,134.96277437075653 L 148.8086971037961,135.25751482714895 L 149.41674935939787,135.05127523171927 L 149.11733907910474,135.79209840973195 L 149.5943038147225,136.53516408291156 L 148.81792879881164,136.5329215877446 L 148.5185185185185,137.27374476575727 L 148.82716049382714,137.80832834834027 L 149.51357138409614,137.658806433057 L 149.1358024691358,138.34291193092324 L 149.44444444444443,138.87749551350623 L 150.14183222124532,138.7543845321577 L 150.66329729954504,138.10901307804875 L 150.8392199980462,138.63127355080914 L 151.53660777484708,138.5081625694606 L 151.63005818995774,137.77374156498286 L 151.18602501896515,137.30494994139454 L 151.72350860506836,137.0393205605051 L 151.816959020179,136.30489955602735 L 152.4506432698084,136.92154357509344 L 153.2298602843326,136.78028189444643 L 153.01685414207844,137.49871671315188 L 153.6287711052497,138.13882962541499 L 154.3261588820506,138.01571864406645 L 154.43667356702431,137.39805047755567 L 155.02354665885147,137.8926076627179 L 155.72093443565237,137.76949668136936 L 155.29708410847957,138.40030993030126 L 155.82376265879765,139.0366635780823 L 154.95268899961957,139.09853625526276 L 154.55469703117566,139.74258037316395 L 154.85631085579743,140.38171769928323 L 155.55230147189363,140.5007327478065 L 155.11689212909954,141.06016404340446 L 155.4054275005559,141.74195855877107 L 154.7331048759369,141.73319372750024 L 154.50881118217097,142.23551148689418 L 154.06078225131793,141.72442889622937 L 153.38845962669893,141.71566406495853 L 152.9997138252067,142.37335862889006 L 153.33733968228208,142.88565205738425 L 152.61096802371446,143.0310531928216 L 152.22222222222223,143.68874775675312 L 152.52179400288554,144.19735364113197 L 153.19074956083196,144.1914127365251 L 152.82136578354888,144.70595952551082 L 153.1209375642122,145.21456540988967 L 153.61102194633278,145.38293896705417 L 154.19213332948746,145.0844244866461 L 154.1828239518194,145.50402228277696 L 154.680258726604,145.64174022625696 L 154.48465909353393,146.0540991575124 L 154.70282425926578,146.34728434528697 L 154.30663723492856,146.45630661254174 L 154.1131797912581,146.84490729988386 L 154.40878652750538,147.39660486658923 L 154.95822864407387,147.28019454985264 L 154.7043932637527,147.94830243329463 L 155.0,148.5 " />
</svg>