<?xml version="1.0" encoding="UTF-8" standalone="no"?>
<svg xmlns="http://www.w3.org/2000/svg" width="210mm" height="297mm" viewBox="0 0 210 297">
  <path style="fill:none;stroke:#000000;stroke-width:1px;" d="M 50,100 L 105,50 L 160,100 L 105,150 Z
        M 50,100 L 30,120 L 105,180 L 180,120 L 160,100
        M 30,120 L 20,130 L 105,200 L 190,130 L 180,120
        M 50,100 L 70,80 L 105,50
        M 160,100 L 140,80 L 105,50
        M 105,150 L 85,130 L 50,100
        M 105,150 L 125,130 L 160,100
        M 105,180 L 85,160 L 50,100
        M 105,180 L 125,160 L 160,100
        M 105,200 L 85,180 L 30,120
        M 105,200 L 125,180 L 180,120" />
</svg>