<?xml version="1.0" encoding="UTF-8" standalone="no"?>
<svg xmlns="http://www.w3.org/2000/svg" width="210mm" height="297mm" viewBox="0 0 210 297">
  <path style="fill:none;stroke:#000000;stroke-width:1px;" d="M 105,148.5 L 110.2,148.5 L 110.37945136969543,148.97064101083734 L 110.51492341686837,149.4724297949348 L 110.6023697924766,150.00115046159462 L 110.63815572471545,150.55212085995402 L 110.61910827962723,151.12023322279234 L 110.5425625842204,151.7 L 110.40640349230735,152.2856044799169 L 110.20910221320905,152.87095574586846 L 109.94974746830583,153.44974746830584 L 109.62807078974308,154.01551999045665 L 109.24446562899774,154.56172512773855 L 108.8,155.08179306876173 L 108.29642244157746,155.56920073888588 L 107.73616114660535,156.01754096628727 L 107.12231616984067,156.42059177557036 L 106.45864469240222,156.77238512530255 L 105.74953938762987,157.067274403589 L 105.0,157.3 L 104.21559831527108,157.46575228282572 L 103.40243676546424,157.5602313277123 L 102.5671009760363,157.57970276711723 L 101.71660662407358,157.5210491595447 L 100.85834103494115,157.38181631295916 L 100.0,157.16025403784437 L 99.14952034921933,156.85535085174772 L 98.31500885925999,156.46686220843736 L 97.5046681194226,155.9953318805774 L 96.72672001431505,155.44210618461463 L 95.98932751282109,154.8093407998615 L 95.3005154776143,154.1 L 94.6680912277822,153.31784818384398 L 94.09956559888347,152.46743366257775 L 93.60207524978901,151.55406473220975 L 93.18230696385352,150.58377813200315 L 92.84642468328072,149.56330006152143 L 92.60000000000001,148.5 L 92.44794680404402,147.4018376413795 L 92.39446076144375,146.2773033258633 L 92.44296425824213,145.13535241366722 L 92.59605740562603,143.98533410810117 L 92.85547565370891,142.83691529267463 L 93.22205450853166,141.70000000000002 L 93.69570178881193,140.58464517835557 L 94.27537779633433,139.50097346438847 L 94.95908370715104,138.45908370715105 L 95.74385842051385,137.46896001908672 L 96.62578402927474,136.54038015338074 L 97.60000000000001,135.68282402399032 L 98.66072607388952,134.90538319445028 L 99.80129382144985,134.21667216405422 L 101.0141867054212,133.62474227514838 L 102.2910884283959,133.1369990530096 L 103.622939264587,132.76012377015044 L 105.0,132.50000000000003 L 106.41192303251205,132.36164589091374 L 107.84783011373764,132.3491528505998 L 109.29639614870183,132.46563128360148 L 110.74593840787124,132.71316397079676 L 112.18451044959188,133.09276762037697 L 113.6,133.60436305490768 L 114.98022999250819,134.24675442937158 L 116.31306193048307,135.017617801106 L 117.58650070512053,135.91349929487947 L 118.78879997614158,136.92982302564232 L 119.90856720605962,138.06090885841098 L 120.93486742963364,139.3 L 121.85732483888165,140.63930033162302 L 122.66622127077505,142.07002130547744 L 123.35259069949227,143.58243814305212 L 123.90830885783436,145.16595498879494 L 124.32617714297983,146.80917859069544 L 124.59999999999997,148.5 L 124.72465502221652,150.22568370640363 L 124.69615506024412,151.9729635533386 L 124.51170169103915,153.7281447110709 L 124.16972946403249,155.47721092384364 L 123.66994041295496,157.2059361918584 L 123.01332839871628,158.89999999999998 L 122.20219293006879,160.54510516337194 L 121.2401421941223,162.1270973253546 L 120.1320851173921,163.63208511739208 L 118.88421236922923,165.04655997136987 L 117.50396631245279,166.35751456549997 L 115.99999999999997,167.5525588832576 L 114.38212541064351,168.62003287221359 L 112.66125121049497,169.5491147056043 L 110.84931041931695,170.32992367413289 L 108.95917845080601,170.9536167686783 L 107.00458208319614,171.4124780561101 L 105.0,171.69999999999996 L 102.9605556197048,171.81095593534678 L 100.90190300706047,171.74146297108805 L 98.84010672656004,171.48903466567978 L 96.791516560184,171.05262289886176 L 94.77263806587511,170.4326484462869 L 92.80000000000004,169.63101985234027 L 90.89001966576431,168.65114028950916 L 89.05886727977385,167.4979021893506 L 87.32233047033634,166.17766952966363 L 85.69568003340179,164.69824776410076 L 84.19353807505965,163.06884148331653 L 82.82974966311842,161.29999999999995 L 81.61725909445448,159.40355115291 L 80.56799185956643,157.39252372646737 L 79.69274335122647,155.28105898168602 L 79.00107532047777,153.08431189040695 L 78.50122103075964,150.81834275708772 L 78.20000000000006,148.5 L 78.10274315152293,146.14679494581324 L 78.213229118068,143.77676956745952 L 78.53363235967959,141.40835816419096 L 79.06448366630899,139.06024404421157 L 79.80464352038118,136.7512123236086 L 80.75128869403576,134.50000000000006 L 81.8999123510505,132.3251444949005 L 83.24433781542109,130.2448318849023 L 84.7767460580648,128.2767460580648 L 86.48771684102772,126.43792003817347 L 88.36628334581971,124.7445907156193 L 90.40000000000003,123.21205820949444 L 92.57502310482347,121.85455106112255 L 94.87620375756023,120.68509842473718 L 97.28719245594489,119.71541037658584 L 99.79055466999209,118.95576740963384 L 102.36789656902071,118.41492011762936 L 104.99999999999999,118.10000000000008 L 107.66696572807831,118.01644223839267 L 110.34836387214142,118.16792120722407 L 113.0233903981781,118.55629938503895 L 115.67102847176082,119.18159023147973 L 118.2702134186579,120.04193548704924 L 120.79999999999993,121.13359724041179 L 123.23973067596324,122.45096499161014 L 125.56920350996921,123.98657782019278 L 127.76883835420678,125.73116164579324 L 129.81983995705482,127.6736814461562 L 131.7043566438211,129.80140817495595 L 133.40563324412952,132.10000000000005 L 134.90815697220938,134.55359736255696 L 136.19779501009208,137.1449312415878 L 137.2619225980548,139.85544389357582 L 138.08954050121014,142.66542123039113 L 138.67138079550094,145.55413589512915 L 138.99999999999994,148.49999999999997 L 139.06985867473765,151.4807264019699 L 138.87738670361992,154.47349731174236 L 138.42103358960173,157.45513896054717 L 137.70130320334957,160.4023009877332 L 136.72077254628272,163.29163916092443 L 135.48409421321222,166.09999999999994 L 133.99798236783028,168.80460584682703 L 132.2711821750356,171.3832389048408 L 130.31442276647837,173.8144227664784 L 128.1403539487154,176.0775999522832 L 125.76346699590785,178.1533040032615 L 123.19999999999999,180.02332469775354 L 120.46782837970959,181.67086500554137 L 117.58634127438461,183.0806884449214 L 114.57630466879327,184.23925557269553 L 111.45971220920983,185.1348484120541 L 108.25962477876243,185.75768170863128 L 105.00000000000001,186.1 L 101.70551292413855,186.156159587868 L 98.40136924865668,185.92269461446392 L 95.11311247708375,185.39836656424242 L 91.86642649629435,184.5841966381789 L 88.68693509680904,183.4834805796147 L 85.59999999999997,182.10178566683624 L 82.63051898230918,180.44692972727069 L 79.80272570028764,178.52894217026395 L 77.13999282125,176.36000717874998 L 74.66464005248845,173.95438934358697 L 72.39774863729811,171.32834216677165 L 70.35898384862243,168.5 L 68.56642696112664,165.48925412197613 L 67.03641812024927,162.31761379035703 L 65.78341145266378,159.00805323116236 L 64.81984367710187,155.58484564881078 L 64.1560173782384,152.073385452654 L 63.799999999999955,148.50000000000003 L 63.75753949900169,144.89175225024698 L 64.03199747469208,141.27623580905572 L 64.62430046111689,137.68136391471467 L 65.53290992699178,134.13515398032195 L 66.75381138705333,130.66550935454242 L 68.28052287953972,127.30000000000001 L 70.1041229132889,124.06564381144538 L 72.21329783450764,120.98869030541611 L 74.59440840897841,118.0944084089784 L 77.2315752615414,115.40688005726014 L 80.10678266236457,112.94880127785768 L 83.19999999999989,110.74129239499845 L 86.48932013575732,108.80371892779465 L 89.95111369367046,107.15352468541998 L 93.56019820646854,105.8060784780231 L 97.29002091158833,104.77453576625786 L 101.11285387345441,104.06971646510806 L 105.00000000000004,103.6999999999999 L 108.9220084236446,103.67123858587135 L 112.84889763054531,103.9866895638481 L 116.75038464765443,104.64696748647619 L 120.59611853565056,105.6500164921625 L 124.35591638772404,106.99110335372131 L 128.00000000000009,108.66283142591573 L 131.49923135941833,110.65517555384844 L 134.8253450894555,112.95553783927934 L 137.95117600329314,115.54882399670674 L 140.85087993796827,118.41753986666988 L 143.50014608158267,121.5419074915007 L 145.87639905862562,124.89999999999993 L 147.95898910553728,128.4678943934907 L 149.72936874940936,132.2198411776981 L 151.17125449661762,136.12844964409953 L 152.27077214458612,140.1648874719873 L 153.0165844480223,144.29909319956292 " />
</svg>