<?xml version="1.0" encoding="UTF-8" standalone="no"?>
<svg xmlns="http://www.w3.org/2000/svg" width="210mm" height="297mm" viewBox="0 0 210 297">
  <path style="fill:none;stroke:#000000;stroke-width:1px;" d="M 105,148.5 L 175.0,148.5 M 105,148.5 L 172.6148078402348,166.61733315717646 M 105,148.5 L 165.62177826491072,183.5 M 105,148.5 L 154.49747468305833,197.99747468305833 M 105,148.5 L 140.0,209.1217782649107 M 105,148.5 L 123.11733315717646,216.1148078402348 M 105,148.5 L 105.0,218.5 M 105,148.5 L 86.88266684282354,216.1148078402348 M 105,148.5 L 70.00000000000001,209.12177826491072 M 105,148.5 L 55.50252531694168,197.99747468305833 M 105,148.5 L 44.37822173508929,183.5 M 105,148.5 L 37.385192159765225,166.61733315717646 M 105,148.5 L 35.0,148.5 M 105,148.5 L 37.385192159765225,130.38266684282354 M 105,148.5 L 44.3782217350893,113.5 M 105,148.5 L 55.502525316941664,99.00252531694167 M 105,148.5 L 69.99999999999997,87.87822173508931 M 105,148.5 L 86.88266684282355,80.88519215976523 M 105,148.5 L 104.99999999999999,78.5 M 105,148.5 L 123.11733315717642,80.88519215976521 M 105,148.5 L 140.0,87.8782217350893 M 105,148.5 L 154.49747468305833,99.00252531694167 M 105,148.5 L 165.6217782649107,113.49999999999997 M 105,148.5 L 172.6148078402348,130.38266684282354 " />
</svg>